<svg xmlns="http://www.w3.org/2000/svg" xmlns:xlink="http://www.w3.org/1999/xlink" viewBox="0,0,256,256" width="100px" height="100px" fill-rule="nonzero"><g fill="none" fill-rule="nonzero" stroke="none" stroke-width="1" stroke-linecap="butt" stroke-linejoin="miter" stroke-miterlimit="10" stroke-dasharray="" stroke-dashoffset="0" font-family="none" font-weight="none" font-size="none" text-anchor="none" style="mix-blend-mode: normal"><g transform="scale(2.56,2.56)"><path d="M69,82h-38c-7.18,0 -13,-5.82 -13,-13v-38c0,-7.18 5.82,-13 13,-13h38c7.18,0 13,5.82 13,13v38c0,7.18 -5.82,13 -13,13z" fill="#9c078d"></path><path d="M31.5,59.5c0,-7.039 5.227,-12.865 12,-13.84v-2.122c-0.33,-0.025 -0.663,-0.038 -1,-0.038c-7.72,0 -14,6.28 -14,14c0,5.498 3.194,10.252 7.816,12.541c-2.944,-2.568 -4.816,-6.336 -4.816,-10.541z" fill="#78ccd3"></path><path d="M45.5,66.5c3.86,0 7,-3.141 7,-7v-12.106v-4.894v-14h4.405c-0.159,-0.623 -0.288,-1.287 -0.376,-2h-7.029v14v4.894v12.106c0,3.859 -3.14,7 -7,7c-0.784,0 -1.535,-0.135 -2.239,-0.374c1.283,1.452 3.153,2.374 5.239,2.374z" fill="#78ccd3"></path><path d="M68.5,37.5c-0.21,0 -2.659,-0.034 -5.3,-1.262c1.711,1.59 3.696,2.406 5.3,2.823z" fill="#78ccd3"></path><path d="M63.2,36.238c-1.753,-1.63 -3.216,-4.071 -3.671,-7.738h-2.624c1.105,4.326 3.786,6.572 6.295,7.738z" fill="#78ccd3"></path><path d="M68.5,39.061v5.439c-3.183,0 -7.998,-1.062 -12,-4.198v17.198c0,7.72 -6.28,14 -14,14c-2.222,0 -4.316,-0.534 -6.184,-1.459c2.461,2.147 5.669,3.459 9.184,3.459c7.72,0 14,-6.28 14,-14v-17.198c4.002,3.137 8.817,4.198 12,4.198v-7c-0.146,0 -1.377,-0.017 -3,-0.439z" fill="#f05b6c"></path><path d="M42.5,50.5c-3.86,0 -7,3.141 -7,7c0,3.076 1.997,5.689 4.761,6.626c-1.092,-1.235 -1.761,-2.852 -1.761,-4.626c0,-3.859 3.14,-7 7,-7c0.34,0 0.673,0.027 1,0.075v-7.037c-0.33,-0.025 -0.663,-0.038 -1,-0.038c-0.681,0 -1.345,0.065 -2,0.16v4.915c-0.327,-0.048 -0.66,-0.075 -1,-0.075z" fill="#f05b6c"></path><path d="M56.5,57.5v-17.198c4.002,3.137 8.817,4.198 12,4.198v-5.439c-1.604,-0.417 -3.589,-1.232 -5.3,-2.823c-2.509,-1.166 -5.19,-3.412 -6.295,-7.738h-4.405v14v4.894v12.106c0,3.859 -3.14,7 -7,7c-2.086,0 -3.956,-0.922 -5.239,-2.374c-2.764,-0.937 -4.761,-3.55 -4.761,-6.626c0,-3.859 3.14,-7 7,-7c0.34,0 0.673,0.027 1,0.075v-4.915c-6.773,0.976 -12,6.801 -12,13.84c0,4.205 1.872,7.973 4.816,10.541c1.868,0.925 3.962,1.459 6.184,1.459c7.72,0 14,-6.28 14,-14z" fill="#ffffff"></path><path d="M36.316,70.541c-0.075,0 -0.15,-0.017 -0.222,-0.052c-4.992,-2.471 -8.094,-7.448 -8.094,-12.989c0,-7.995 6.505,-14.5 14.5,-14.5c0.35,0 0.695,0.014 1.038,0.04c0.261,0.019 0.462,0.236 0.462,0.498v2.122c0,0.249 -0.183,0.459 -0.429,0.495c-6.596,0.949 -11.571,6.687 -11.571,13.345c0,3.884 1.693,7.589 4.646,10.164c0.188,0.166 0.227,0.445 0.087,0.654c-0.096,0.144 -0.254,0.223 -0.417,0.223zM42.5,44c-7.444,0 -13.5,6.056 -13.5,13.5c0,3.867 1.623,7.439 4.396,9.955c-1.548,-2.345 -2.396,-5.104 -2.396,-7.955c0,-7.007 5.129,-13.064 12,-14.267v-1.223c-0.166,-0.007 -0.332,-0.01 -0.5,-0.01z" fill="#1f212b"></path><path d="M45.5,67c-2.14,0 -4.186,-0.927 -5.614,-2.543c-0.149,-0.17 -0.167,-0.419 -0.041,-0.608c0.126,-0.189 0.363,-0.267 0.576,-0.197c0.681,0.231 1.38,0.348 2.079,0.348c3.584,0 6.5,-2.916 6.5,-6.5v-31c0,-0.276 0.224,-0.5 0.5,-0.5h7.029c0.253,0 0.466,0.188 0.496,0.439c0.081,0.655 0.203,1.307 0.364,1.938c0.038,0.149 0.005,0.308 -0.09,0.43c-0.095,0.122 -0.239,0.193 -0.394,0.193h-3.905v30.5c0,4.136 -3.364,7.5 -7.5,7.5zM42.027,64.985c1.032,0.656 2.235,1.015 3.473,1.015c3.584,0 6.5,-2.916 6.5,-6.5v-31c0,-0.276 0.224,-0.5 0.5,-0.5h3.774c-0.07,-0.33 -0.131,-0.664 -0.182,-1h-6.092v30.5c0,4.136 -3.364,7.5 -7.5,7.5c-0.157,0 -0.315,-0.005 -0.473,-0.015z" fill="#1f212b"></path><path d="M68.5,39.561c-0.042,0 -0.084,-0.005 -0.126,-0.016c-2.165,-0.563 -4.021,-1.552 -5.515,-2.94c-0.18,-0.167 -0.211,-0.441 -0.074,-0.645c0.138,-0.205 0.402,-0.277 0.626,-0.175c2.585,1.201 4.988,1.215 5.089,1.215c0.276,0 0.5,0.224 0.5,0.5v1.561c0,0.155 -0.071,0.301 -0.194,0.396c-0.088,0.067 -0.197,0.104 -0.306,0.104zM66.372,37.77c0.516,0.242 1.06,0.452 1.628,0.628v-0.417c-0.38,-0.025 -0.944,-0.082 -1.628,-0.211z" fill="#1f212b"></path><path d="M63.2,36.738c-0.071,0 -0.143,-0.015 -0.211,-0.046c-3.346,-1.556 -5.617,-4.346 -6.568,-8.068c-0.038,-0.15 -0.005,-0.309 0.09,-0.431c0.095,-0.122 0.24,-0.193 0.394,-0.193h2.624c0.252,0 0.465,0.188 0.496,0.438c0.388,3.125 1.57,5.626 3.516,7.434c0.18,0.167 0.211,0.441 0.074,0.645c-0.095,0.142 -0.253,0.221 -0.415,0.221zM57.564,29c0.653,2.135 1.768,3.872 3.329,5.192c-0.903,-1.485 -1.506,-3.221 -1.801,-5.192z" fill="#1f212b"></path><path d="M45.5,74c-3.487,0 -6.865,-1.272 -9.513,-3.582c-0.189,-0.166 -0.227,-0.446 -0.087,-0.655c0.14,-0.209 0.415,-0.282 0.638,-0.17c1.885,0.934 3.89,1.407 5.962,1.407c7.444,0 13.5,-6.056 13.5,-13.5v-17.198c0,-0.191 0.109,-0.366 0.281,-0.45c0.171,-0.084 0.377,-0.062 0.527,0.056c3.649,2.86 8.075,3.975 11.191,4.083v-4.931c0,-0.155 0.071,-0.301 0.194,-0.396c0.121,-0.095 0.279,-0.127 0.432,-0.088c1.609,0.419 2.824,0.424 2.875,0.424c0.276,0 0.5,0.224 0.5,0.5v7c0,0.276 -0.224,0.5 -0.5,0.5c-3.079,0 -7.614,-0.987 -11.5,-3.706v16.206c0,7.995 -6.505,14.5 -14.5,14.5zM39.871,71.758c1.756,0.812 3.674,1.242 5.629,1.242c7.444,0 13.5,-6.056 13.5,-13.5v-16.98c-0.679,-0.362 -1.349,-0.77 -2,-1.226v16.206c0,7.995 -6.505,14.5 -14.5,14.5c-0.889,0 -1.767,-0.081 -2.629,-0.242zM64.266,44.484c2.417,0.995 4.822,1.44 6.734,1.507v-6.011c-0.444,-0.03 -1.148,-0.104 -2,-0.287v4.807c0,0.276 -0.224,0.5 -0.5,0.5c-1.225,0 -2.681,-0.156 -4.234,-0.516z" fill="#1f212b"></path><path d="M40.261,64.626c-0.054,0 -0.107,-0.009 -0.16,-0.026c-3.051,-1.035 -5.101,-3.888 -5.101,-7.1c0,-4.136 3.364,-7.5 7.5,-7.5c0.164,0 0.331,0.006 0.5,0.018v-4.358c0,-0.249 0.183,-0.459 0.429,-0.495c1.213,-0.175 2.146,-0.198 3.109,-0.125c0.261,0.019 0.462,0.236 0.462,0.498v7.037c0,0.145 -0.063,0.283 -0.173,0.378c-0.11,0.096 -0.257,0.138 -0.399,0.116c-0.316,-0.046 -0.627,-0.069 -0.928,-0.069c-3.584,0 -6.5,2.916 -6.5,6.5c0,1.577 0.581,3.102 1.636,4.295c0.149,0.169 0.167,0.419 0.041,0.608c-0.095,0.142 -0.252,0.223 -0.416,0.223zM42.5,51c-3.584,0 -6.5,2.916 -6.5,6.5c0,2.16 1.07,4.133 2.786,5.328c-0.514,-1.029 -0.786,-2.166 -0.786,-3.328c0,-4.136 3.364,-7.5 7.5,-7.5c0.164,0 0.331,0.006 0.5,0.018v-6.008c-0.626,-0.023 -1.252,-0.003 -2,0.088v4.477c0,0.145 -0.063,0.283 -0.173,0.378c-0.11,0.096 -0.254,0.136 -0.399,0.116c-0.316,-0.046 -0.627,-0.069 -0.928,-0.069z" fill="#1f212b"></path><path d="M42.5,72c-2.228,0 -4.383,-0.508 -6.405,-1.511c-0.039,-0.02 -0.074,-0.043 -0.107,-0.071c-3.17,-2.765 -4.988,-6.745 -4.988,-10.918c0,-7.152 5.343,-13.314 12.429,-14.335c0.144,-0.021 0.29,0.023 0.398,0.117c0.11,0.095 0.173,0.233 0.173,0.378v4.915c0,0.145 -0.063,0.283 -0.173,0.378c-0.11,0.096 -0.254,0.136 -0.399,0.116c-0.316,-0.046 -0.627,-0.069 -0.928,-0.069c-3.584,0 -6.5,2.916 -6.5,6.5c0,2.783 1.776,5.256 4.421,6.152c0.083,0.028 0.157,0.077 0.215,0.143c1.238,1.401 3.01,2.205 4.864,2.205c3.584,0 6.5,-2.916 6.5,-6.5v-31c0,-0.276 0.224,-0.5 0.5,-0.5h4.405c0.229,0 0.428,0.155 0.484,0.376c0.887,3.471 2.913,5.963 6.021,7.409c0.048,0.022 0.091,0.052 0.13,0.087c1.37,1.274 3.081,2.184 5.085,2.705c0.221,0.057 0.375,0.256 0.375,0.484v5.439c0,0.276 -0.224,0.5 -0.5,0.5c-3.079,0 -7.614,-0.987 -11.5,-3.706v16.206c0,7.995 -6.505,14.5 -14.5,14.5zM36.597,69.622c1.867,0.914 3.852,1.378 5.903,1.378c7.444,0 13.5,-6.056 13.5,-13.5v-17.198c0,-0.191 0.109,-0.366 0.281,-0.45c0.171,-0.084 0.377,-0.062 0.527,0.056c3.649,2.86 8.075,3.975 11.191,4.083v-4.549c-1.979,-0.568 -3.686,-1.503 -5.082,-2.784c-3.193,-1.509 -5.397,-4.15 -6.396,-7.658h-3.521v30.5c0,4.136 -3.364,7.5 -7.5,7.5c-2.096,0 -4.102,-0.889 -5.525,-2.444c-2.982,-1.069 -4.975,-3.888 -4.975,-7.056c0,-4.136 3.364,-7.5 7.5,-7.5c0.164,0 0.331,0.006 0.5,0.018v-3.768c-6.311,1.189 -11,6.786 -11,13.25c0,3.863 1.675,7.548 4.597,10.122z" fill="#1f212b"></path><path d="M22.5,34c-0.276,0 -0.5,-0.224 -0.5,-0.5c0,-6.341 5.159,-11.5 11.5,-11.5h3c0.276,0 0.5,0.224 0.5,0.5c0,0.276 -0.224,0.5 -0.5,0.5h-3c-5.79,0 -10.5,4.71 -10.5,10.5c0,0.276 -0.224,0.5 -0.5,0.5z" fill="#1f212b"></path><path d="M77.45,68c-0.016,0 -0.031,0 -0.047,-0.002c-0.274,-0.025 -0.478,-0.269 -0.452,-0.544c0.029,-0.315 0.049,-0.632 0.049,-0.954c0,-0.276 0.224,-0.5 0.5,-0.5c0.276,0 0.5,0.224 0.5,0.5c0,0.353 -0.021,0.701 -0.053,1.046c-0.024,0.259 -0.242,0.454 -0.497,0.454z" fill="#1f212b"></path><path d="M66.5,78c-0.276,0 -0.5,-0.224 -0.5,-0.5c0,-0.276 0.224,-0.5 0.5,-0.5c2.677,0 5.23,-1.017 7.191,-2.864c0.201,-0.19 0.517,-0.181 0.707,0.021c0.189,0.201 0.18,0.518 -0.021,0.707c-2.148,2.022 -4.944,3.136 -7.877,3.136z" fill="#1f212b"></path><path d="M75.713,73c-0.094,0 -0.188,-0.026 -0.273,-0.081c-0.231,-0.151 -0.296,-0.461 -0.146,-0.692c0.574,-0.879 1.012,-1.842 1.3,-2.863c0.075,-0.266 0.354,-0.422 0.617,-0.345c0.267,0.075 0.421,0.352 0.346,0.617c-0.316,1.118 -0.796,2.173 -1.425,3.137c-0.096,0.147 -0.256,0.227 -0.419,0.227z" fill="#1f212b"></path><path d="M69,83h-38c-7.72,0 -14,-6.28 -14,-14v-38c0,-7.72 6.28,-14 14,-14h38c7.72,0 14,6.28 14,14v38c0,7.72 -6.28,14 -14,14zM31,19c-6.617,0 -12,5.383 -12,12v38c0,6.617 5.383,12 12,12h38c6.617,0 12,-5.383 12,-12v-38c0,-6.617 -5.383,-12 -12,-12z" fill="#1f212b"></path></g></g></svg>