<?xml version="1.0" standalone="no"?>
<!DOCTYPE svg PUBLIC "-//W3C//DTD SVG 20010904//EN"
 "http://www.w3.org/TR/2001/REC-SVG-20010904/DTD/svg10.dtd">
<svg version="1.0" xmlns="http://www.w3.org/2000/svg"
 width="700.000000pt" height="700.000000pt" viewBox="0 0 700.000000 700.000000"
 preserveAspectRatio="xMidYMid meet">

<g transform="translate(0.000000,700.000000) scale(0.100000,-0.100000)"
fill="#000000" stroke="none">
<path d="M1975 6912 c-373 -233 -609 -410 -725 -544 -62 -71 -130 -117 -176
-118 -35 0 -142 -90 -242 -203 -83 -93 -255 -336 -324 -457 -127 -221 -185
-396 -253 -760 -44 -233 -52 -347 -36 -543 l12 -147 -30 -92 c-157 -493 -162
-1033 -15 -1541 191 -658 650 -1233 1258 -1577 56 -31 109 -60 120 -63 13 -5
17 -13 12 -30 -3 -12 -6 -27 -6 -33 0 -6 -30 -18 -66 -27 -115 -29 -310 -173
-442 -327 -73 -85 -190 -258 -252 -372 l-42 -78 70 0 70 0 60 103 c86 146 168
252 276 357 134 133 311 247 347 225 4 -3 11 -20 14 -38 4 -17 28 -70 53 -117
26 -47 47 -89 47 -94 0 -5 -24 -15 -53 -22 -29 -8 -74 -26 -99 -41 -58 -34
-166 -134 -202 -187 -28 -41 -101 -172 -101 -181 0 -3 29 -5 64 -5 l64 0 38
67 c73 131 221 248 328 260 37 5 48 1 76 -24 l32 -29 -53 -39 c-54 -41 -149
-147 -182 -204 l-18 -31 61 0 60 0 88 88 c133 135 185 148 434 106 109 -18
258 -61 279 -80 8 -8 21 -14 28 -14 7 0 36 -23 65 -50 l53 -50 92 0 c93 0 115
13 45 26 -27 5 -56 26 -113 83 l-77 77 15 160 c8 87 15 160 17 162 1 2 41 -20
89 -49 122 -73 304 -153 480 -211 83 -27 151 -51 153 -53 2 -2 -12 -23 -30
-48 -45 -62 -92 -130 -96 -139 -2 -5 23 -8 55 -8 l58 0 54 86 54 86 36 -7 c20
-3 83 -17 139 -31 133 -32 409 -74 489 -74 34 0 64 -4 67 -9 3 -5 -16 -18 -42
-29 l-47 -21 112 -1 c103 0 114 2 140 24 26 21 40 24 203 31 96 5 225 9 285
10 130 3 209 15 365 56 146 38 278 87 404 150 114 58 249 145 291 189 16 16
34 30 40 30 13 0 123 112 149 152 15 23 20 25 51 17 43 -12 97 0 227 52 214
85 321 155 503 331 l125 120 0 2752 -1 2751 -145 120 c-79 66 -177 141 -216
168 l-72 47 -150 0 -151 -1 91 -35 91 -36 61 -151 c79 -197 98 -251 128 -372
56 -230 169 -944 189 -1200 4 -44 9 -89 12 -100 3 -11 -14 7 -37 40 -98 138
-126 160 -149 117 -11 -21 7 -64 88 -207 36 -64 51 -101 51 -128 0 -20 11
-104 25 -185 63 -374 61 -757 -6 -1337 -30 -268 -86 -608 -116 -710 -4 -13
-18 19 -42 95 -56 176 -167 396 -363 723 -122 205 -168 300 -294 612 -59 149
-155 362 -212 475 -86 170 -249 539 -240 545 2 1 28 13 58 28 44 21 69 43 121
109 88 112 109 143 109 162 0 35 -43 12 -127 -67 -48 -45 -100 -90 -114 -99
-71 -45 -378 -110 -650 -137 l-194 -20 -80 78 c-99 95 -166 146 -320 243 -67
41 -143 92 -170 113 -61 47 -204 115 -334 159 -53 18 -133 50 -177 70 -111 49
-203 71 -439 102 -170 22 -236 26 -438 25 l-238 -1 -327 -65 c-382 -76 -413
-84 -512 -135 -41 -21 -144 -71 -229 -111 -144 -69 -219 -115 -322 -199 l-44
-35 25 40 c120 200 299 445 436 599 44 50 112 134 152 186 39 52 80 105 90
118 42 54 546 147 1202 223 330 38 678 36 1060 -7 190 -21 321 -50 420 -91
112 -46 127 -49 150 -28 25 22 26 57 2 78 -25 23 -146 73 -233 96 -201 55
-660 95 -989 88 -231 -5 -408 -23 -845 -87 -115 -16 -219 -30 -229 -30 -26 0
455 326 629 427 l40 23 -455 -1 -455 0 -140 -87z m1115 -1147 c598 -80 1104
-333 1515 -756 392 -404 619 -873 697 -1439 21 -157 16 -528 -10 -685 -29
-173 -87 -403 -99 -391 -3 2 0 21 7 41 7 20 10 39 7 41 -3 3 -49 10 -103 15
-55 6 -101 15 -103 21 -2 5 -12 -7 -22 -28 -11 -22 -17 -30 -13 -19 14 48 45
201 65 325 19 120 21 161 16 365 -5 237 -12 293 -64 505 -112 464 -390 911
-751 1209 -326 269 -642 421 -1052 505 -598 122 -1251 -11 -1757 -356 -153
-105 -205 -147 -322 -261 -283 -277 -454 -557 -595 -972 -35 -102 -55 -186
-61 -248 -2 -30 -9 -66 -14 -80 -29 -75 -37 -399 -16 -647 l4 -55 -10 63 c-10
58 -13 63 -33 58 -11 -3 -43 -11 -70 -18 l-48 -13 5 -69 c9 -102 -2 -74 -18
50 -64 483 12 980 217 1414 66 140 198 348 307 484 151 190 424 439 591 539
25 15 74 46 110 69 168 106 469 229 680 277 52 12 111 26 130 31 19 5 96 16
170 24 74 9 151 17 170 20 66 8 355 -3 470 -19z m-151 -370 c295 -31 524 -98
785 -228 272 -136 501 -316 691 -542 255 -306 411 -633 487 -1027 20 -99 22
-146 22 -383 0 -280 -8 -359 -59 -554 -68 -264 -216 -562 -391 -788 -78 -101
-270 -296 -359 -365 -321 -251 -681 -406 -1075 -465 -166 -24 -469 -24 -625 0
-733 115 -1332 545 -1659 1190 -285 562 -314 1196 -83 1782 272 692 886 1200
1632 1350 212 43 420 53 634 30z m2516 -302 c23 -95 113 -312 215 -523 66
-135 168 -367 229 -516 60 -150 119 -291 131 -314 12 -23 18 -46 13 -50 -7 -7
-267 -54 -367 -66 -22 -3 -47 -9 -57 -15 -10 -5 -31 -6 -47 -3 -24 5 -33 1
-51 -21 -11 -15 -21 -39 -21 -52 0 -58 66 -140 138 -170 99 -41 348 -35 489
12 40 14 78 25 83 25 13 0 66 -93 177 -307 l94 -182 -45 -6 c-59 -9 -89 -3
-233 46 -205 70 -294 89 -418 89 -167 0 -285 -34 -285 -81 0 -12 -9 -33 -21
-47 l-20 -26 6 74 c9 98 -11 530 -30 669 -40 281 -161 656 -281 867 -41 72
-78 145 -83 161 -19 65 -105 201 -197 309 -34 40 -50 66 -42 68 7 2 81 9 163
15 83 6 211 24 285 40 172 36 166 36 175 4z m-5028 -2265 c-3 -8 -6 -5 -6 6
-1 11 2 17 5 13 3 -3 4 -12 1 -19z m6123 -98 c0 -5 -2 -10 -4 -10 -3 0 -8 5
-11 10 -3 6 -1 10 4 10 6 0 11 -4 11 -10z m-787 -10 c324 -32 571 -306 576
-642 2 -96 6 -116 35 -166 l14 -24 31 39 c18 21 48 74 67 118 20 44 56 125 80
180 48 107 52 119 54 180 l2 40 28 -60 c16 -33 29 -65 29 -71 1 -14 -86 -144
-129 -195 -53 -62 -116 -256 -185 -572 -29 -133 -119 -396 -172 -500 -84 -168
-222 -368 -307 -447 -27 -25 -63 -59 -80 -76 -74 -74 -306 -187 -531 -257
-130 -40 -345 -75 -580 -93 -235 -18 -308 -19 -395 -4 -30 6 -122 17 -203 25
-222 22 -381 50 -592 105 -224 58 -440 131 -597 201 -170 77 -170 75 -11 83
446 22 856 144 1239 367 l133 79 78 -14 c88 -15 134 -33 206 -77 62 -38 91
-36 95 7 3 26 -4 38 -43 72 -46 40 -128 79 -192 89 l-31 5 76 61 c322 254 668
702 737 952 14 52 43 132 52 144 5 7 63 -52 83 -85 18 -28 18 -33 4 -80 -24
-77 -15 -199 19 -257 66 -112 194 -157 304 -108 55 25 128 94 160 150 15 25
28 48 29 49 7 11 138 -64 156 -89 12 -16 24 -29 27 -29 11 0 50 85 71 155 26
86 37 265 21 350 -24 128 -110 254 -212 310 -51 28 -61 30 -164 30 -103 0
-114 -2 -178 -32 -92 -44 -149 -86 -204 -152 -26 -31 -44 -49 -41 -41 3 8 23
68 44 134 33 99 43 120 64 128 19 7 109 18 220 26 8 1 59 -3 113 -8z m77 -186
c17 -20 36 -47 41 -61 35 -94 -32 -246 -140 -315 -86 -54 -184 -28 -245 65
-75 116 18 312 158 334 17 3 33 7 35 9 2 2 30 4 62 4 53 0 59 -3 89 -36z
m-798 -125 l86 -121 -16 -44 c-9 -24 -20 -43 -23 -42 -4 2 -46 54 -93 116
l-86 114 17 49 c10 27 20 49 23 48 3 0 44 -54 92 -120z m-91 -220 l83 -111
-29 -52 c-54 -98 -129 -212 -202 -306 -81 -105 -161 -196 -166 -189 -2 2 -34
46 -71 97 l-68 92 43 56 c99 126 172 239 251 392 38 72 71 132 73 132 1 0 40
-50 86 -111z m-2749 -1219 c29 -8 51 -29 107 -99 39 -48 77 -94 86 -101 8 -7
12 -16 10 -21 -7 -10 -65 0 -84 15 -17 14 -171 203 -171 210 0 8 10 7 52 -4z
m1102 -87 c32 -43 58 -82 58 -88 -1 -5 -27 -15 -59 -22 -160 -34 -272 -46
-463 -50 l-206 -5 -72 96 c-40 52 -72 97 -72 98 0 2 109 4 243 4 194 2 264 6
352 22 165 30 152 33 219 -55z m-1391 -157 c59 -20 114 -36 122 -36 13 0 15
-11 10 -62 -3 -35 -10 -116 -15 -182 -5 -65 -11 -120 -13 -122 -1 -2 -23 -4
-47 -6 -42 -3 -44 -2 -99 63 -106 126 -185 282 -198 391 l-6 48 69 -29 c38
-16 117 -45 177 -65z"/>
<path d="M4850 6984 c84 -22 305 -135 405 -207 144 -103 205 -126 205 -77 0
34 -179 186 -308 261 l-67 39 -145 -1 -145 -1 55 -14z"/>
<path d="M5962 6301 c-8 -5 -9 -23 -3 -57 7 -51 47 -119 226 -394 34 -52 76
-123 94 -156 40 -76 83 -118 141 -138 40 -14 47 -14 67 0 14 9 23 24 23 41 0
34 -102 227 -196 370 -122 187 -307 362 -352 334z"/>
</g>
</svg>
